<?xml version="1.0" ?><!DOCTYPE svg  PUBLIC '-//W3C//DTD SVG 1.1//EN'  'http://www.w3.org/Graphics/SVG/1.1/DTD/svg11.dtd'><svg height="100mm" style="shape-rendering:geometricPrecision; text-rendering:geometricPrecision; image-rendering:optimizeQuality; fill-rule:evenodd; clip-rule:evenodd" viewBox="0 0 100 100" width="100mm" xml:space="preserve" xmlns="http://www.w3.org/2000/svg" xmlns:xlink="http://www.w3.org/1999/xlink"><defs><style type="text/css">
   <![CDATA[
    .fil0 {fill:#008DD2}
   ]]>
  </style></defs><g id="Ebene_x0020_1"><path class="fil0" d="M34.7956 39.0655l0 0c3.4143,-4.7202 8.9479,-7.814 15.2045,-7.814 6.2568,0 11.792,3.0938 15.1994,7.814 2.2204,3.0808 3.5504,6.8537 3.5504,10.9328 0,10.3375 -8.4187,18.7493 -18.752,18.7493 -10.3374,0 -18.7472,-8.4118 -18.7472,-18.7493 0.0035,-4.0791 1.3275,-7.852 3.5449,-10.9328l0 0zm38.2099 -26.5655l-46.0106 0c-7.9931,0 -14.4949,6.5006 -14.4949,14.4948l0 15.3088 0 30.7034c0,7.9924 6.5018,14.493 14.4949,14.493l46.0123 0c7.9919,0 14.4928,-6.5006 14.4928,-14.493l0 -30.7061 0 -15.3109c-0.0027,-7.9918 -6.5019,-14.49 -14.4945,-14.49zm-57.3805 37.4998l0 23.0072c0,6.2681 5.1023,11.368 11.3699,11.368l46.0123 0c6.2672,0 11.3678,-5.1008 11.3678,-11.368l0 -23.0072 -12.5001 0c-0.0009,12.0597 -9.8224,21.8725 -21.8774,21.8725 -12.0597,0 -21.8709,-9.8128 -21.8718,-21.8725l-12.5007 0zm57.3805 -34.3748l-4.2556 0 0 15.625 15.6251 0 0 -4.26c0,-6.2678 -5.1028,-11.365 -11.3695,-11.365z"/></g></svg>