<?xml version="1.0" ?><svg enable-background="new 0 0 100 100" id="Livello_1" version="1.1" viewBox="0 0 100 100" xml:space="preserve" xmlns="http://www.w3.org/2000/svg" xmlns:xlink="http://www.w3.org/1999/xlink"><path d="M50,12c-20.954,0-38,17.047-38,38c0,15.749,9.48,29.639,24.152,35.386c0.162,0.062,0.347,0.038,0.486-0.069  c0.139-0.106,0.212-0.277,0.193-0.451c-0.345-3.115-0.604-7.481,0.12-10.59c0.681-2.926,4.397-18.638,4.397-18.638  c0.026-0.113,0.013-0.233-0.039-0.338c-0.011-0.021-1.07-2.193-1.07-5.345c0-4.826,2.761-8.606,6.286-8.606  c3.129,0,4.245,2.471,4.245,4.782c0,1.978-0.821,4.637-1.69,7.452c-0.499,1.617-1.015,3.289-1.401,4.918  c-0.441,1.863-0.068,3.667,1.05,5.08c1.162,1.47,2.981,2.312,4.99,2.312c7.121,0,12.289-7.433,12.289-17.673  c0-9.277-6.647-15.757-16.164-15.757c-11.323,0-17.433,8.643-17.433,16.774c0,3.151,1.195,6.801,2.905,8.876  c0.205,0.248,0.215,0.41,0.159,0.64c-0.164,0.684-0.444,1.82-0.675,2.759c-0.17,0.69-0.314,1.275-0.367,1.496  c-0.056,0.233-0.119,0.282-0.12,0.282c0,0.005-0.107,0.035-0.437-0.118c-4.583-2.134-7.323-8.832-7.323-14.074  c0-15.248,12.584-22.193,24.277-22.193c12.895,0,22.618,9.096,22.618,21.158c0,13.013-8.15,22.825-18.959,22.825  c-3.44,0-6.945-1.736-8.152-4.039c-0.096-0.183-0.292-0.285-0.5-0.265c-0.205,0.023-0.375,0.171-0.427,0.37  c0,0-1.881,7.161-2.337,8.916c-0.862,3.314-3.254,7.496-4.604,9.694c-0.081,0.132-0.096,0.293-0.042,0.438  c0.054,0.145,0.172,0.256,0.32,0.302C42.38,87.43,46.166,88,50,88c20.954,0,38-17.047,38-38S70.954,12,50,12z M50,87  c-3.518,0-6.994-0.493-10.34-1.466c1.41-2.347,3.557-6.237,4.382-9.411c0.346-1.331,1.512-5.774,2.054-7.84  c1.717,2.111,5.093,3.605,8.393,3.605c11.378,0,19.959-10.242,19.959-23.825c0-12.632-10.154-22.158-23.618-22.158  c-17.367,0-25.277,12.022-25.277,23.193c0,5.556,2.955,12.679,7.901,14.98c0.523,0.245,0.946,0.28,1.294,0.112  c0.327-0.158,0.542-0.469,0.656-0.95c0.053-0.22,0.196-0.802,0.365-1.489c0.231-0.941,0.512-2.079,0.676-2.764  c0.137-0.567,0.022-1.047-0.36-1.511c-1.576-1.911-2.677-5.299-2.677-8.239c0-7.647,5.759-15.774,16.433-15.774  c8.928,0,15.164,6.068,15.164,14.757c0,9.661-4.748,16.673-11.289,16.673c-1.701,0-3.234-0.704-4.206-1.933  c-0.924-1.168-1.23-2.67-0.861-4.229c0.379-1.597,0.89-3.252,1.384-4.854c0.892-2.89,1.735-5.619,1.735-7.747  c0-3.513-2.059-5.782-5.245-5.782c-4.085,0-7.286,4.22-7.286,9.606c0,2.918,0.83,5.022,1.096,5.621  c-0.402,1.698-3.718,15.725-4.358,18.473c-0.692,2.974-0.53,6.988-0.227,10.096C21.902,78.372,13,65.059,13,50  c0-20.402,16.598-37,37-37s37,16.598,37,37S70.402,87,50,87z"/></svg>